<svg width="25" height="26" viewBox="0 0 25 26" fill="none" xmlns="http://www.w3.org/2000/svg">
<path d="M7.08705 11.6657V7.20737C7.08705 6.5048 7.23312 5.80912 7.51692 5.16003C7.80071 4.51095 8.21668 3.92117 8.74107 3.42439C9.26546 2.9276 9.888 2.53352 10.5731 2.26466C11.2583 1.9958 11.9926 1.85742 12.7342 1.85742C13.4758 1.85742 14.2101 1.9958 14.8953 2.26466C15.5804 2.53352 16.203 2.9276 16.7274 3.42439C17.2518 3.92117 17.6677 4.51095 17.9515 5.16003C18.2353 5.80912 18.3814 6.5048 18.3814 7.20737V11.6657M4.11486 24.4461H21.3536C22.3385 24.4461 23.1369 23.6477 23.1369 22.6628V13.1518C23.1369 12.1669 22.3385 11.3684 21.3536 11.3684H4.11486C3.12996 11.3684 2.33154 12.1669 2.33154 13.1518V22.6628C2.33154 23.6477 3.12996 24.4461 4.11486 24.4461Z" stroke="white" stroke-width="3"/>
</svg>
